<svg width="1200" height="630" viewBox="0 0 1200 630" fill="none" xmlns="http://www.w3.org/2000/svg">
<rect width="1200" height="630" fill="#101623"/>
<path d="M459.76 281.92H463.08V303.76H459.76V281.92ZM462.16 291.32H468.4V294.08H462.16V291.32ZM439.56 305.68H463.08V318.12H459.76V308.4H439.56V305.68ZM436.48 284.2H439.76V289.84H449.96V284.2H453.24V301.32H436.48V284.2ZM439.76 292.48V298.64H449.96V292.48H439.76ZM479.397 285.32H481.997V292.24C481.997 294.133 481.797 295.987 481.397 297.8C480.997 299.587 480.437 301.28 479.717 302.88C478.997 304.48 478.104 305.92 477.037 307.2C475.997 308.453 474.824 309.48 473.517 310.28L471.397 307.84C472.65 307.093 473.757 306.16 474.717 305.04C475.704 303.92 476.544 302.667 477.237 301.28C477.957 299.867 478.49 298.4 478.837 296.88C479.21 295.333 479.397 293.787 479.397 292.24V285.32ZM479.957 285.32H482.597V292.04C482.597 293.533 482.757 295.013 483.077 296.48C483.424 297.947 483.917 299.333 484.557 300.64C485.224 301.947 486.024 303.133 486.957 304.2C487.89 305.267 488.957 306.12 490.157 306.76L488.157 309.36C486.85 308.613 485.677 307.64 484.637 306.44C483.624 305.213 482.77 303.827 482.077 302.28C481.384 300.733 480.85 299.093 480.477 297.36C480.13 295.627 479.957 293.853 479.957 292.04V285.32ZM499.357 281.92H502.557V318.12H499.357V281.92ZM493.597 296.48H500.557V299.2H493.597V296.48ZM491.397 282.68H494.557V316.28H491.397V282.68ZM603.864 344V326.545H605.875V332.989H606.045C606.193 332.761 606.398 332.472 606.659 332.119C606.926 331.761 607.307 331.443 607.801 331.165C608.301 330.881 608.977 330.739 609.83 330.739C610.932 330.739 611.903 331.014 612.744 331.565C613.585 332.116 614.241 332.898 614.713 333.909C615.185 334.92 615.42 336.114 615.42 337.489C615.42 338.875 615.185 340.077 614.713 341.094C614.241 342.105 613.588 342.889 612.753 343.446C611.918 343.997 610.955 344.273 609.864 344.273C609.023 344.273 608.349 344.134 607.844 343.855C607.338 343.571 606.949 343.25 606.676 342.892C606.403 342.528 606.193 342.227 606.045 341.989H605.807V344H603.864ZM605.841 337.455C605.841 338.443 605.986 339.315 606.276 340.071C606.565 340.821 606.989 341.409 607.545 341.835C608.102 342.256 608.784 342.466 609.591 342.466C610.432 342.466 611.134 342.244 611.696 341.801C612.264 341.352 612.69 340.75 612.974 339.994C613.264 339.233 613.409 338.386 613.409 337.455C613.409 336.534 613.267 335.705 612.983 334.966C612.705 334.222 612.281 333.634 611.713 333.202C611.151 332.764 610.443 332.545 609.591 332.545C608.773 332.545 608.085 332.753 607.528 333.168C606.972 333.577 606.551 334.151 606.267 334.889C605.983 335.622 605.841 336.477 605.841 337.455ZM619.324 348.909C618.983 348.909 618.679 348.881 618.412 348.824C618.145 348.773 617.96 348.722 617.858 348.67L618.369 346.898C618.858 347.023 619.29 347.068 619.665 347.034C620.04 347 620.372 346.832 620.662 346.531C620.957 346.236 621.227 345.756 621.472 345.091L621.847 344.068L617.006 330.909H619.188L622.801 341.341H622.938L626.551 330.909H628.733L623.176 345.909C622.926 346.585 622.616 347.145 622.247 347.588C621.878 348.037 621.449 348.369 620.96 348.585C620.477 348.801 619.932 348.909 619.324 348.909ZM650.342 332C650.155 331.426 649.908 330.912 649.601 330.457C649.3 329.997 648.939 329.605 648.518 329.281C648.104 328.957 647.632 328.71 647.104 328.54C646.575 328.369 645.996 328.284 645.365 328.284C644.331 328.284 643.391 328.551 642.544 329.085C641.697 329.619 641.024 330.406 640.524 331.446C640.024 332.486 639.774 333.761 639.774 335.273C639.774 336.784 640.027 338.06 640.533 339.099C641.038 340.139 641.723 340.926 642.587 341.46C643.45 341.994 644.422 342.261 645.501 342.261C646.501 342.261 647.382 342.048 648.143 341.622C648.911 341.19 649.507 340.582 649.933 339.798C650.365 339.009 650.581 338.08 650.581 337.011L651.229 337.148H645.979V335.273H652.626V337.148C652.626 338.585 652.32 339.835 651.706 340.898C651.098 341.96 650.257 342.784 649.183 343.369C648.115 343.949 646.888 344.239 645.501 344.239C643.956 344.239 642.598 343.875 641.428 343.148C640.263 342.42 639.354 341.386 638.7 340.045C638.053 338.705 637.729 337.114 637.729 335.273C637.729 333.892 637.913 332.651 638.283 331.548C638.658 330.44 639.186 329.497 639.868 328.719C640.55 327.94 641.357 327.344 642.288 326.929C643.22 326.514 644.246 326.307 645.365 326.307C646.286 326.307 647.143 326.446 647.939 326.724C648.74 326.997 649.453 327.386 650.078 327.892C650.709 328.392 651.234 328.991 651.655 329.69C652.075 330.384 652.365 331.153 652.524 332H650.342ZM655.974 344V330.909H657.917V332.886H658.053C658.292 332.239 658.724 331.713 659.349 331.31C659.974 330.906 660.678 330.705 661.462 330.705C661.61 330.705 661.795 330.707 662.016 330.713C662.238 330.719 662.406 330.727 662.519 330.739V332.784C662.451 332.767 662.295 332.741 662.05 332.707C661.812 332.668 661.559 332.648 661.292 332.648C660.656 332.648 660.087 332.781 659.587 333.048C659.093 333.31 658.701 333.673 658.411 334.139C658.127 334.599 657.985 335.125 657.985 335.716V344H655.974ZM669.994 344.273C668.732 344.273 667.644 343.994 666.729 343.438C665.82 342.875 665.119 342.091 664.624 341.085C664.136 340.074 663.891 338.898 663.891 337.557C663.891 336.216 664.136 335.034 664.624 334.011C665.119 332.983 665.806 332.182 666.687 331.608C667.573 331.028 668.607 330.739 669.789 330.739C670.471 330.739 671.144 330.852 671.809 331.08C672.474 331.307 673.079 331.676 673.624 332.188C674.17 332.693 674.604 333.364 674.928 334.199C675.252 335.034 675.414 336.062 675.414 337.284V338.136H665.323V336.398H673.369C673.369 335.659 673.221 335 672.925 334.42C672.636 333.841 672.221 333.384 671.681 333.048C671.147 332.713 670.516 332.545 669.789 332.545C668.988 332.545 668.295 332.744 667.71 333.142C667.13 333.534 666.684 334.045 666.371 334.676C666.059 335.307 665.903 335.983 665.903 336.705V337.864C665.903 338.852 666.073 339.69 666.414 340.378C666.761 341.06 667.241 341.58 667.854 341.938C668.468 342.29 669.181 342.466 669.994 342.466C670.522 342.466 670.999 342.392 671.425 342.244C671.857 342.091 672.229 341.864 672.542 341.562C672.854 341.256 673.096 340.875 673.266 340.42L675.21 340.966C675.005 341.625 674.661 342.205 674.178 342.705C673.695 343.199 673.099 343.585 672.388 343.864C671.678 344.136 670.88 344.273 669.994 344.273ZM682.326 344.307C681.496 344.307 680.744 344.151 680.067 343.838C679.391 343.52 678.854 343.062 678.457 342.466C678.059 341.864 677.86 341.136 677.86 340.284C677.86 339.534 678.008 338.926 678.303 338.46C678.599 337.989 678.994 337.619 679.488 337.352C679.982 337.085 680.528 336.886 681.124 336.756C681.727 336.619 682.332 336.511 682.94 336.432C683.735 336.33 684.38 336.253 684.874 336.202C685.374 336.145 685.738 336.051 685.965 335.92C686.198 335.79 686.315 335.562 686.315 335.239V335.17C686.315 334.33 686.085 333.676 685.624 333.21C685.17 332.744 684.479 332.511 683.553 332.511C682.593 332.511 681.84 332.722 681.295 333.142C680.749 333.562 680.366 334.011 680.144 334.489L678.235 333.807C678.576 333.011 679.031 332.392 679.599 331.949C680.173 331.5 680.798 331.187 681.474 331.011C682.156 330.83 682.826 330.739 683.485 330.739C683.906 330.739 684.388 330.79 684.934 330.892C685.485 330.989 686.016 331.19 686.528 331.497C687.045 331.804 687.474 332.267 687.815 332.886C688.156 333.506 688.326 334.335 688.326 335.375V344H686.315V342.227H686.212C686.076 342.511 685.849 342.815 685.531 343.139C685.212 343.463 684.789 343.739 684.261 343.966C683.732 344.193 683.087 344.307 682.326 344.307ZM682.633 342.5C683.428 342.5 684.099 342.344 684.644 342.031C685.195 341.719 685.61 341.315 685.888 340.821C686.173 340.327 686.315 339.807 686.315 339.261V337.42C686.229 337.523 686.042 337.616 685.752 337.702C685.468 337.781 685.138 337.852 684.763 337.915C684.394 337.972 684.033 338.023 683.681 338.068C683.335 338.108 683.053 338.142 682.837 338.17C682.315 338.239 681.826 338.349 681.371 338.503C680.923 338.651 680.559 338.875 680.281 339.176C680.008 339.472 679.871 339.875 679.871 340.386C679.871 341.085 680.13 341.614 680.647 341.972C681.17 342.324 681.832 342.5 682.633 342.5ZM697.69 330.909V332.614H690.906V330.909H697.69ZM692.884 327.773H694.895V340.25C694.895 340.818 694.977 341.244 695.142 341.528C695.313 341.807 695.528 341.994 695.79 342.091C696.057 342.182 696.338 342.227 696.634 342.227C696.855 342.227 697.037 342.216 697.179 342.193C697.321 342.165 697.435 342.142 697.52 342.125L697.929 343.932C697.793 343.983 697.602 344.034 697.358 344.085C697.114 344.142 696.804 344.17 696.429 344.17C695.861 344.17 695.304 344.048 694.759 343.804C694.219 343.56 693.77 343.188 693.412 342.688C693.06 342.188 692.884 341.557 692.884 340.795V327.773ZM706.409 330.909V332.614H699.625V330.909H706.409ZM701.602 327.773H703.614V340.25C703.614 340.818 703.696 341.244 703.861 341.528C704.031 341.807 704.247 341.994 704.509 342.091C704.776 342.182 705.057 342.227 705.352 342.227C705.574 342.227 705.756 342.216 705.898 342.193C706.04 342.165 706.153 342.142 706.239 342.125L706.648 343.932C706.511 343.983 706.321 344.034 706.077 344.085C705.832 344.142 705.523 344.17 705.148 344.17C704.58 344.17 704.023 344.048 703.477 343.804C702.938 343.56 702.489 343.188 702.131 342.688C701.778 342.188 701.602 341.557 701.602 340.795V327.773ZM709.435 344V330.909H711.446V344H709.435ZM710.457 328.727C710.065 328.727 709.727 328.594 709.443 328.327C709.165 328.06 709.026 327.739 709.026 327.364C709.026 326.989 709.165 326.668 709.443 326.401C709.727 326.134 710.065 326 710.457 326C710.849 326 711.185 326.134 711.463 326.401C711.747 326.668 711.889 326.989 711.889 327.364C711.889 327.739 711.747 328.06 711.463 328.327C711.185 328.594 710.849 328.727 710.457 328.727ZM720.823 330.909V332.614H714.039V330.909H720.823ZM716.016 327.773H718.028V340.25C718.028 340.818 718.11 341.244 718.275 341.528C718.445 341.807 718.661 341.994 718.923 342.091C719.19 342.182 719.471 342.227 719.766 342.227C719.988 342.227 720.17 342.216 720.312 342.193C720.454 342.165 720.567 342.142 720.653 342.125L721.062 343.932C720.925 343.983 720.735 344.034 720.491 344.085C720.246 344.142 719.937 344.17 719.562 344.17C718.994 344.17 718.437 344.048 717.891 343.804C717.352 343.56 716.903 343.188 716.545 342.688C716.192 342.188 716.016 341.557 716.016 340.795V327.773ZM730.803 326.545H732.917V339.023C732.917 340.136 732.712 341.082 732.303 341.861C731.894 342.639 731.317 343.23 730.573 343.634C729.829 344.037 728.951 344.239 727.94 344.239C726.985 344.239 726.136 344.065 725.391 343.719C724.647 343.366 724.062 342.866 723.636 342.219C723.21 341.571 722.996 340.801 722.996 339.909H725.076C725.076 340.403 725.198 340.835 725.442 341.205C725.692 341.568 726.033 341.852 726.465 342.057C726.897 342.261 727.388 342.364 727.94 342.364C728.548 342.364 729.065 342.236 729.491 341.98C729.917 341.724 730.241 341.349 730.462 340.855C730.69 340.355 730.803 339.744 730.803 339.023V326.545ZM735.653 326.545H738.073L742.914 334.693H743.119L747.96 326.545H750.38L744.073 336.807V344H741.96V336.807L735.653 326.545Z" fill="#84DD84"/>
<path d="M520.314 284.56C522.207 284.56 523.874 284.92 525.314 285.64C526.78 286.333 527.927 287.32 528.754 288.6C529.58 289.88 529.994 291.373 529.994 293.08C529.994 294.76 529.58 296.253 528.754 297.56C527.927 298.84 526.78 299.84 525.314 300.56C523.874 301.253 522.207 301.6 520.314 301.6C518.447 301.6 516.78 301.253 515.314 300.56C513.847 299.84 512.687 298.84 511.834 297.56C511.007 296.253 510.594 294.76 510.594 293.08C510.594 291.373 511.007 289.88 511.834 288.6C512.687 287.32 513.847 286.333 515.314 285.64C516.78 284.92 518.447 284.56 520.314 284.56ZM520.314 287.44C519.087 287.44 517.98 287.68 516.994 288.16C516.034 288.613 515.274 289.267 514.714 290.12C514.154 290.973 513.874 291.96 513.874 293.08C513.874 294.2 514.154 295.187 514.714 296.04C515.274 296.893 516.034 297.56 516.994 298.04C517.98 298.493 519.087 298.72 520.314 298.72C521.567 298.72 522.674 298.493 523.634 298.04C524.594 297.56 525.354 296.893 525.914 296.04C526.474 295.187 526.754 294.2 526.754 293.08C526.754 291.96 526.474 290.973 525.914 290.12C525.354 289.267 524.594 288.613 523.634 288.16C522.674 287.68 521.567 287.44 520.314 287.44ZM534.754 281.92H538.074V318.16H534.754V281.92ZM509.234 310.24L508.794 307.44C511.007 307.44 513.434 307.427 516.074 307.4C518.714 307.347 521.434 307.24 524.234 307.08C527.06 306.893 529.78 306.6 532.394 306.2L532.674 308.64C529.954 309.147 527.194 309.52 524.394 309.76C521.62 309.973 518.94 310.107 516.354 310.16C513.767 310.213 511.394 310.24 509.234 310.24ZM584.081 281.92H587.281V318.12H584.081V281.92ZM578.241 296.48H585.201V299.2H578.241V296.48ZM568.921 286.6H572.081C572.081 288.92 571.854 291.187 571.401 293.4C570.947 295.613 570.201 297.747 569.161 299.8C568.147 301.827 566.774 303.733 565.041 305.52C563.307 307.28 561.147 308.893 558.561 310.36L556.641 308C559.681 306.293 562.094 304.36 563.881 302.2C565.667 300.04 566.947 297.707 567.721 295.2C568.521 292.667 568.921 290 568.921 287.2V286.6ZM558.041 286.6H570.001V289.32H558.041V286.6ZM576.081 282.88H579.201V316.32H576.081V282.88ZM594.918 283.44H598.198V288.6H608.398V283.44H611.678V299.2H594.918V283.44ZM598.198 291.2V296.52H608.398V291.2H598.198ZM618.198 281.92H621.518V300.6H618.198V281.92ZM620.038 289.72H626.838V292.44H620.038V289.72ZM598.518 302.32H621.518V311.12H601.878V316.52H598.638V308.64H618.238V304.96H598.518V302.32ZM598.638 315.04H622.798V317.72H598.638V315.04ZM645.804 282.56H649.084V285.96H666.604V282.56H669.884V294.52H645.804V282.56ZM649.084 288.48V291.92H666.604V288.48H649.084ZM641.484 297.56H674.164V300.2H641.484V297.56ZM645.444 303.48H669.964V311.56H648.764V316H645.524V309.16H666.724V306H645.444V303.48ZM645.524 315.12H671.044V317.72H645.524V315.12ZM678.281 310.88H711.081V313.64H678.281V310.88ZM692.961 303.16H696.241V312.04H692.961V303.16ZM682.281 284.6H707.001V295.56H685.641V302.8H682.361V292.92H703.721V287.32H682.281V284.6ZM682.361 301.4H707.841V304.12H682.361V301.4ZM718.638 285.76H741.918V288.48H718.638V285.76ZM715.078 310.08H747.758V312.84H715.078V310.08ZM740.118 285.76H743.398V289.4C743.398 290.92 743.371 292.547 743.318 294.28C743.291 295.987 743.185 297.88 742.998 299.96C742.811 302.04 742.491 304.387 742.038 307L738.678 306.64C739.158 304.187 739.491 301.933 739.678 299.88C739.891 297.827 740.011 295.933 740.038 294.2C740.091 292.467 740.118 290.867 740.118 289.4V285.76Z" fill="white"/>
</svg>
